<?xml version="1.0" encoding="UTF-8"?> <svg xmlns="http://www.w3.org/2000/svg" width="100" height="100" viewBox="0 0 100 100" fill="none"> <rect width="100" height="100" fill="white"></rect> <path d="M78.0139 54.5279C77.3185 53.7374 76.3594 53.2656 75.3139 53.1997C74.28 53.1371 73.2788 53.4777 72.4971 54.1677L63.8323 61.9012C63.8071 61.7544 63.7765 61.6143 63.7412 61.4859C63.3571 60.0971 62.3463 59.1346 61.5136 58.7961C59.7952 58.1021 57.4181 58.427 55.1219 58.741C53.602 58.949 52.0284 59.1625 51.0448 58.9885C50.5003 58.8912 49.9429 58.6452 49.2985 58.361C47.5515 57.5895 45.1588 56.5345 40.7057 57.5005C38.3334 58.0178 36.4988 59.3433 35.2548 60.5376V58.497C35.2548 57.9342 34.7987 57.4774 34.2352 57.4774H24.858C24.2945 57.4774 23.8384 57.9342 23.8384 58.497V81.4814C23.8384 82.0443 24.2945 82.5011 24.858 82.5011H34.2352C34.7987 82.5011 35.2548 82.0443 35.2548 81.4814V76.7844C37.5102 77.286 42.3215 78.2479 46.0289 78.2479C50.6655 78.2479 56.3468 77.1956 59.8442 75.6893C66.28 72.9206 76.8781 60.9747 77.7366 59.9979C78.4884 59.3113 78.9343 58.3753 78.9934 57.355C79.0533 56.317 78.7052 55.3124 78.0139 54.5279ZM33.2156 80.4632H25.8776V59.5173H33.2156V80.4632ZM76.3363 58.5167C76.303 58.5453 76.2717 58.5765 76.2432 58.6092C76.133 58.7349 65.1836 71.173 59.0373 73.8179C55.767 75.2264 50.418 76.2106 46.0289 76.2106C42.2998 76.2106 37.1785 75.1319 35.2548 74.6941V63.6318C35.8163 62.8474 37.9188 60.1957 41.1387 59.4942C44.9426 58.6683 46.8187 59.4969 48.4746 60.2276C49.2081 60.5512 49.9007 60.8564 50.6852 60.9964C51.9855 61.2282 53.6421 61.0019 55.3972 60.7619C57.3372 60.4961 59.5355 60.1971 60.7475 60.6865C61.0541 60.8115 61.5762 61.3105 61.7753 62.0303C61.9725 62.742 61.7971 63.4701 61.2621 64.1954L60.407 64.9587C60.3988 64.9662 60.3954 64.9771 60.388 64.9845C57.5935 66.913 50.036 69.218 46.7086 68.955C46.1451 68.9108 45.6571 69.3329 45.6142 69.8944C45.5714 70.4559 45.9915 70.946 46.553 70.9888C46.7623 71.0044 46.9853 71.0119 47.2205 71.0119C51.6858 71.0119 60.5253 68.2018 62.7413 65.6099L73.8525 55.693C74.2209 55.3674 74.6899 55.2036 75.1868 55.2355C75.6878 55.2668 76.148 55.4938 76.4838 55.8759C76.8182 56.2558 76.9868 56.7398 76.9576 57.2388C76.9284 57.735 76.7081 58.1884 76.3363 58.5167Z" fill="#07D645"></path> <path d="M37.4626 31.5854H39.7207V52.1662C39.7207 52.729 40.1768 53.1858 40.7404 53.1858H62.3402C62.903 53.1858 63.3598 52.729 63.3598 52.1662V31.5854H65.6213C66.0604 31.5854 66.4499 31.3046 66.5886 30.8886C66.7273 30.4719 66.5845 30.0138 66.2338 29.75L51.9746 19.0548C51.6082 18.7809 51.1039 18.7843 50.7415 19.0623L36.8406 29.7575C36.4946 30.024 36.3566 30.4808 36.4973 30.8941C36.6374 31.308 37.0262 31.5854 37.4626 31.5854ZM51.371 21.1512L62.5631 29.5461H62.3408C61.778 29.5461 61.3212 30.0022 61.3212 30.5657V51.1466H41.76V30.5657C41.76 30.0022 41.3039 29.5461 40.7404 29.5461H40.4596L51.371 21.1512Z" fill="#07D645"></path> <path d="M47.6339 46.2917H55.4476C56.0105 46.2917 56.4673 45.8356 56.4673 45.2721V33.5831C56.4673 33.0196 56.0105 32.5635 55.4476 32.5635H47.6339C47.0704 32.5635 46.6143 33.0196 46.6143 33.5831V45.2721C46.6143 45.8356 47.0711 46.2917 47.6339 46.2917ZM48.6535 34.6027H54.428V44.2525H48.6535V34.6027Z" fill="#07D645"></path> </svg> 