<?xml version="1.0" encoding="UTF-8"?> <svg xmlns="http://www.w3.org/2000/svg" width="100" height="100" viewBox="0 0 100 100" fill="none"> <rect width="100" height="100" fill="none"></rect> <path d="M49.9978 15C39.5223 15 31 23.5722 31 34.1089C31 34.7207 31.4923 35.2159 32.1006 35.2159C32.7089 35.2159 33.2012 34.7207 33.2012 34.1089C33.2012 24.7928 40.7366 17.2139 49.9978 17.2139C59.2355 17.2139 66.7555 24.7508 66.7973 34.0322C66.6102 35.3487 64.172 52.5138 63.3737 56.2044C63.1389 57.2958 62.8278 58.9098 62.4683 60.7783C61.9334 63.5582 61.2665 67.0178 60.6252 69.8855C59.5598 74.6543 55.7796 79.7861 49.9971 79.7861C42.1366 79.7861 38.859 74.4373 38.4041 69.3601C37.8399 65.7256 37.6359 61.162 38.2918 60.1245C38.7548 59.3872 40.1783 58.6699 41.4652 58.5268C42.276 58.4352 42.7625 58.5998 42.9298 58.7673C43.4067 59.2477 43.6195 60.8868 43.7912 62.2033C44.0707 64.3545 44.3605 66.5787 45.8654 67.4525C46.7232 67.9543 47.8993 67.7735 48.735 67.5351C49.8665 67.2111 51.2628 66.5138 51.7859 65.5264C52.549 64.0844 51.6854 62.1959 50.8504 60.3709C50.416 59.4197 49.8745 58.2367 49.9009 57.6788C49.9464 56.6649 51.7301 54.8694 53.1631 53.4274C55.313 51.2637 57.3425 49.221 57.1187 47.1473C56.754 43.8427 50.5804 39.0673 46.4649 38.905C44.1602 38.8039 43.5512 40.9476 43.1081 42.5099C42.6443 44.1408 42.3354 44.9164 41.5026 44.9762C41.3823 44.9829 41.1849 44.9983 40.9179 44.6102C39.4401 42.4671 40.022 34.948 41.5173 31.6596C43.4896 27.313 46.3622 25.1094 49.9861 25.1847C56.2543 25.271 58.9691 33.3665 58.9948 33.447C59.1834 34.027 59.8012 34.3473 60.3823 34.1569C60.9605 33.968 61.2767 33.3429 61.0889 32.7614C60.9605 32.3658 57.8656 23.0785 50.0161 22.97C46.8523 22.9265 42.4638 24.2401 39.515 30.7386C37.8531 34.3938 36.9924 42.8029 39.1092 45.8714C39.7424 46.7901 40.6464 47.2565 41.6589 47.1835C44.1199 47.0071 44.7582 44.7585 45.2241 43.1173C45.6864 41.4893 45.9307 41.079 46.3761 41.1166C49.5524 41.2421 54.704 45.3378 54.9299 47.3894C55.04 48.4063 53.0553 50.404 51.6061 51.8629C49.6419 53.8407 47.7863 55.7077 47.7019 57.577C47.6506 58.6721 48.2339 59.9473 48.851 61.2971C49.2853 62.2461 50.0939 64.0143 49.8444 64.4844C49.5297 65.0186 47.5046 65.7507 46.9697 65.5374C46.4025 65.2083 46.145 63.2269 45.9747 61.917C45.7267 60.0138 45.4927 58.2161 44.4889 57.2036C43.7743 56.4826 42.6157 56.1719 41.2231 56.3261C39.592 56.5084 37.3967 57.405 36.4326 58.94C35.0018 61.2048 36.0129 68.3026 36.2212 69.6295C37.0349 78.7603 44.1514 82 49.9978 82C55.9902 82 61.2437 77.2187 62.7743 70.3711C63.4229 67.4709 64.0921 63.9936 64.6299 61.1989C64.9865 59.3429 65.2954 57.7401 65.5258 56.6737C66.3681 52.7773 68.8819 35.0181 68.989 34.2639C68.9963 34.2122 69 34.1606 69 34.1082C68.9985 23.5722 60.4748 15 49.9978 15Z" fill="rgb(23, 42, 92)"></path> </svg> 