<?xml version="1.0" encoding="UTF-8"?> <svg xmlns="http://www.w3.org/2000/svg" width="100" height="100" viewBox="0 0 100 100" fill="none"> <rect width="100" height="100" fill="white"></rect> <path d="M72.9412 21.9121H27.0588C26.4736 21.9121 26 22.3858 26 22.9709V78.0298C26 78.6142 26.4736 79.0886 27.0588 79.0886H72.9412C73.5256 79.0886 74 78.6142 74 78.0298V22.9709C74 22.3858 73.5256 21.9121 72.9412 21.9121ZM71.8824 76.9709H28.1176V24.0298H71.8824V76.9709Z" fill="#07D645"></path> <path d="M46.8235 38.853H63.7646C64.3491 38.853 64.8235 38.3794 64.8235 37.7942C64.8235 37.209 64.3491 36.7354 63.7646 36.7354H46.8235C46.2383 36.7354 45.7646 37.209 45.7646 37.7942C45.7646 38.3794 46.2383 38.853 46.8235 38.853Z" fill="#07D645"></path> <path d="M46.8235 51.5591H63.7646C64.3491 51.5591 64.8235 51.0854 64.8235 50.5002C64.8235 49.9151 64.3491 49.4414 63.7646 49.4414H46.8235C46.2383 49.4414 45.7646 49.9151 45.7646 50.5002C45.7646 51.0854 46.2383 51.5591 46.8235 51.5591Z" fill="#07D645"></path> <path d="M46.8235 64.2651H63.7646C64.3491 64.2651 64.8235 63.7908 64.8235 63.2063C64.8235 62.6218 64.3491 62.1475 63.7646 62.1475H46.8235C46.2383 62.1475 45.7646 62.6218 45.7646 63.2063C45.7646 63.7908 46.2383 64.2651 46.8235 64.2651Z" fill="#07D645"></path> <path d="M35.9839 41.5753C36.6701 42.104 37.4931 42.3829 38.3451 42.3829C38.5131 42.3829 38.6832 42.3716 38.8526 42.3497C39.8811 42.2163 40.7959 41.6904 41.4284 40.8695C42.0609 40.0485 42.3369 39.0292 42.2028 38.0015C42.0694 36.973 41.5435 36.0582 40.7225 35.4257C39.9009 34.7925 38.8809 34.5172 37.8545 34.6513C36.8261 34.7848 35.9112 35.3106 35.2788 36.1316C34.6463 36.9525 34.3696 37.9711 34.503 38.9996C34.6364 40.0281 35.1623 40.9429 35.9839 41.5753ZM36.9552 37.4241C37.2425 37.0506 37.659 36.8113 38.1263 36.7506C38.2032 36.7408 38.2802 36.7358 38.3571 36.7358C38.7439 36.7358 39.1188 36.8629 39.4301 37.1029C39.8035 37.3902 40.0428 37.8066 40.1035 38.2739C40.1635 38.7412 40.0392 39.2043 39.7512 39.5777C39.4639 39.9511 39.0475 40.1904 38.5802 40.2511C38.1115 40.3111 37.6498 40.1869 37.2764 39.8989C36.903 39.6116 36.6637 39.1951 36.603 38.7278C36.543 38.2598 36.6672 37.7968 36.9552 37.4241Z" fill="#07D645"></path> <path d="M38.3531 54.3829C40.494 54.3829 42.2354 52.6408 42.2354 50.5005C42.2354 48.3596 40.494 46.6182 38.3531 46.6182C36.2121 46.6182 34.4707 48.3596 34.4707 50.5005C34.4707 52.6408 36.2121 54.3829 38.3531 54.3829ZM38.3531 48.7358C39.3258 48.7358 40.1178 49.5278 40.1178 50.5005C40.1178 51.4739 39.3258 52.2652 38.3531 52.2652C37.3803 52.2652 36.5884 51.4739 36.5884 50.5005C36.5884 49.5278 37.3803 48.7358 38.3531 48.7358Z" fill="#07D645"></path> <path d="M38.3531 67.0889C40.494 67.0889 42.2354 65.3468 42.2354 63.2066C42.2354 61.0663 40.494 59.3242 38.3531 59.3242C36.2121 59.3242 34.4707 61.0663 34.4707 63.2066C34.4707 65.3468 36.2121 67.0889 38.3531 67.0889ZM38.3531 61.4419C39.3258 61.4419 40.1178 62.2332 40.1178 63.2066C40.1178 64.18 39.3258 64.9713 38.3531 64.9713C37.3803 64.9713 36.5884 64.18 36.5884 63.2066C36.5884 62.2332 37.3803 61.4419 38.3531 61.4419Z" fill="#07D645"></path> </svg> 