<?xml version="1.0" encoding="UTF-8"?> <svg xmlns="http://www.w3.org/2000/svg" width="100" height="100" viewBox="0 0 100 100" fill="none"> <rect width="100" height="100" fill="white"></rect> <path d="M80 48.8937C80 46.2346 77.8232 44.0708 75.1462 44.0708C72.4705 44.0708 70.293 46.2339 70.293 48.8937C70.293 49.9564 70.6449 50.9371 71.2328 51.7353H65.4665V25.992C65.4665 25.4437 65.0195 25 64.4688 25H36.7014C36.1507 25 35.7038 25.4437 35.7038 25.992V51.7353H29.7672C30.3545 50.9371 30.7063 49.9564 30.7063 48.8937C30.7063 46.2346 28.5308 44.0708 25.8558 44.0708C23.1788 44.0708 21 46.2339 21 48.8937C21 51.2149 22.6581 53.1571 24.8582 53.6161V75.008C24.8582 75.5563 25.3051 76 25.8558 76H75.1468C75.6975 76 76.1445 75.5563 76.1445 75.008V53.6161C78.3433 53.1571 80 51.2142 80 48.8937ZM74.1485 53.7192V60.6458H26.8528V53.7192H74.1485ZM51.499 51.7353V44.8095H63.4706V51.7353H51.499ZM37.6984 35.8937H49.5037V42.8255H37.6984V35.8937V35.8937ZM51.499 35.8937H63.4706V42.8255H51.499V35.8937V35.8937ZM63.4706 33.9098H51.499V26.9839H63.4706V33.9098ZM49.5037 26.9839V33.9098H37.6984V26.9839H49.5037ZM37.6984 44.8095H49.5037V51.7353H37.6984V44.8095V44.8095ZM22.9946 48.8937C22.9946 47.3284 24.2782 46.0547 25.8551 46.0547C27.4294 46.0547 28.7104 47.3284 28.7104 48.8937C28.7104 50.4603 27.4294 51.7353 25.8551 51.7353C24.2782 51.7353 22.9946 50.4603 22.9946 48.8937ZM26.8528 74.0154V62.6297H74.1485V74.0154H26.8528ZM75.1462 51.7353C73.5706 51.7353 72.2883 50.4603 72.2883 48.8937C72.2883 47.3284 73.5706 46.0547 75.1462 46.0547C76.7224 46.0547 78.0047 47.3284 78.0047 48.8937C78.0047 50.4603 76.7224 51.7353 75.1462 51.7353Z" fill="#07D645"></path> </svg> 